<?xml version="1.0" standalone="no"?>
<!DOCTYPE svg PUBLIC "-//W3C//DTD SVG 20010904//EN"
 "http://www.w3.org/TR/2001/REC-SVG-20010904/DTD/svg10.dtd">
<svg version="1.0" xmlns="http://www.w3.org/2000/svg"
 width="480.000000pt" height="233.000000pt" viewBox="0 0 480.000000 233.000000"
 preserveAspectRatio="xMidYMid meet">

<g transform="translate(0.000000,233.000000) scale(0.100000,-0.100000)"
fill="#000000" stroke="none">
<path d="M2280 1712 c-167 -44 -296 -182 -332 -353 l-12 -59 -108 0 c-59 0
-108 -1 -109 -2 0 -2 -12 -226 -27 -498 l-27 -495 -25 -7 c-14 -3 -121 -14
-238 -23 -212 -16 -446 -40 -490 -50 -17 -4 -22 -12 -20 -28 3 -20 8 -22 63
-21 33 1 152 11 265 23 113 12 258 24 324 28 l118 6 -7 -116 -7 -117 751 0
752 0 -7 120 -7 119 49 -4 c27 -3 114 -10 194 -15 80 -6 226 -20 324 -31 162
-18 181 -18 195 -4 14 13 14 17 0 30 -17 18 -250 46 -563 69 -109 8 -199 16
-201 18 -1 2 -12 194 -24 428 -12 234 -24 458 -27 498 l-6 72 -108 0 -107 0
-12 59 c-18 92 -63 171 -136 239 -125 118 -273 156 -435 114z m250 -87 c104
-37 195 -133 230 -244 11 -35 20 -67 20 -72 0 -5 -164 -9 -381 -9 l-381 0 7
38 c17 96 95 208 180 257 92 55 222 67 325 30z m-588 -462 l3 -58 35 0 35 0 3
58 3 57 379 0 379 0 3 -57 3 -58 35 0 35 0 3 58 3 57 69 0 c64 0 70 -2 74 -22
5 -25 57 -1020 56 -1080 l0 -38 -665 0 -666 0 5 32 c3 18 18 275 33 571 l27
537 73 0 72 0 3 -57z"/>
<path d="M2102 608 c-7 -7 -12 -21 -12 -33 0 -12 5 -26 12 -33 28 -28 78 -7
78 33 0 27 -18 45 -45 45 -12 0 -26 -5 -33 -12z"/>
<path d="M2632 608 c-28 -28 -7 -78 33 -78 27 0 45 18 45 45 0 27 -18 45 -45
45 -12 0 -26 -5 -33 -12z"/>
<path d="M2433 438 c-42 -14 -88 -62 -79 -83 5 -14 15 -15 58 -10 141 18 193
30 196 46 7 39 -108 70 -175 47z"/>
</g>
</svg>
