<svg xmlns="http://www.w3.org/2000/svg" width="15" height="15" viewBox="0 0 15 15">
                                            <path d="M12.8,2.2A7.5,7.5,0,0,0,2.2,12.8,7.5,7.5,0,0,0,12.8,2.2Zm-.621,9.985A6.621,6.621,0,0,1,2.818,2.818a6.621,6.621,0,1,1,9.364,9.364Z" transform="translate(0)"></path>
                                            <path d="M145.494,144.873l-2.685-2.685,2.685-2.685a.439.439,0,0,0-.622-.621l-2.685,2.685-2.685-2.685a.439.439,0,0,0-.621.621l2.685,2.685-2.685,2.685a.439.439,0,1,0,.621.621l2.685-2.685,2.685,2.685a.439.439,0,1,0,.621-.621Z" transform="translate(-134.668 -134.668)"></path>
                                        </svg>