<svg width="26" height="16" viewBox="0 0 26 16" fill="none" xmlns="http://www.w3.org/2000/svg">
<path d="M25.5 0.0500488H7.96826C7.9026 0.0500316 7.83757 0.0629525 7.7769 0.0880737C7.71623 0.113195 7.6611 0.150024 7.61467 0.196457C7.56824 0.24289 7.53141 0.298017 7.50629 0.358687C7.48117 0.419358 7.46825 0.484383 7.46826 0.550049C7.46826 0.74676 7.39012 0.935415 7.25102 1.07451C7.11193 1.21361 6.92327 1.29175 6.72656 1.29175C6.52985 1.29175 6.3412 1.21361 6.2021 1.07451C6.06301 0.935415 5.98486 0.74676 5.98486 0.550049C5.98488 0.484383 5.97196 0.419358 5.94684 0.358687C5.92172 0.298017 5.88489 0.24289 5.83845 0.196457C5.79202 0.150024 5.7369 0.113195 5.67622 0.0880737C5.61555 0.0629525 5.55053 0.0500316 5.48486 0.0500488H0.5C0.434334 0.0500316 0.369308 0.0629525 0.308638 0.0880737C0.247967 0.113195 0.192841 0.150024 0.146408 0.196457C0.0999754 0.24289 0.0631464 0.298017 0.0380252 0.358687C0.0129039 0.419358 -1.72268e-05 0.484383 1.72372e-08 0.550049V15.4499C-1.72268e-05 15.5156 0.0129039 15.5806 0.0380252 15.6413C0.0631464 15.702 0.0999754 15.7571 0.146408 15.8035C0.192841 15.85 0.247967 15.8868 0.308638 15.9119C0.369308 15.937 0.434334 15.95 0.5 15.9499H5.48486C5.55053 15.95 5.61555 15.937 5.67622 15.9119C5.7369 15.8868 5.79202 15.85 5.83845 15.8035C5.88489 15.7571 5.92172 15.702 5.94684 15.6413C5.97196 15.5806 5.98488 15.5156 5.98486 15.4499C5.98486 15.2532 6.06301 15.0646 6.2021 14.9255C6.3412 14.7864 6.52985 14.7082 6.72656 14.7082C6.92327 14.7082 7.11193 14.7864 7.25102 14.9255C7.39012 15.0646 7.46826 15.2532 7.46826 15.4499C7.46825 15.5156 7.48117 15.5806 7.50629 15.6413C7.53141 15.702 7.56824 15.7571 7.61467 15.8035C7.6611 15.85 7.71623 15.8868 7.7769 15.9119C7.83757 15.937 7.9026 15.95 7.96826 15.9499H25.5C25.5657 15.95 25.6307 15.937 25.6914 15.9119C25.752 15.8868 25.8072 15.85 25.8536 15.8035C25.9 15.7571 25.9369 15.702 25.962 15.6413C25.9871 15.5806 26 15.5156 26 15.4499V0.550049C26 0.484383 25.9871 0.419358 25.962 0.358687C25.9369 0.298017 25.9 0.24289 25.8536 0.196457C25.8072 0.150024 25.752 0.113195 25.6914 0.0880737C25.6307 0.0629525 25.5657 0.0500316 25.5 0.0500488ZM25 14.9499H8.395C8.28743 14.5911 8.067 14.2764 7.76644 14.0527C7.46588 13.8291 7.1012 13.7083 6.72654 13.7083C6.35188 13.7083 5.98721 13.8291 5.68665 14.0527C5.38608 14.2764 5.16566 14.5911 5.05809 14.9499H1V1.05005H5.05812C5.1657 1.40894 5.38612 1.72357 5.68668 1.94725C5.98724 2.17094 6.35192 2.29174 6.72658 2.29174C7.10124 2.29174 7.46592 2.17094 7.76648 1.94725C8.06704 1.72357 8.28747 1.40894 8.39504 1.05005H25V14.9499Z" fill="#444444"/>
<path d="M13.9942 7.60083C14.3504 7.60094 14.6985 7.49543 14.9946 7.29765C15.2908 7.09988 15.5216 6.81872 15.6579 6.48973C15.7942 6.16075 15.8299 5.79873 15.7604 5.44946C15.691 5.1002 15.5195 4.77938 15.2677 4.52759H15.2674C14.5868 3.84692 13.4005 3.84692 12.7208 4.52759C12.4688 4.7793 12.2971 5.10013 12.2275 5.44947C12.158 5.7988 12.1936 6.16093 12.33 6.48999C12.4663 6.81906 12.6972 7.10026 12.9935 7.29801C13.2898 7.49575 13.6381 7.60114 13.9942 7.60083ZM13.4281 5.23462C13.5024 5.16017 13.5906 5.1011 13.6877 5.0608C13.7848 5.0205 13.889 4.99976 13.9941 4.99976C14.0993 4.99976 14.2034 5.0205 14.3005 5.0608C14.3977 5.1011 14.4859 5.16017 14.5602 5.23462H14.5604C14.6725 5.34662 14.7489 5.48934 14.7798 5.64475C14.8108 5.80015 14.795 5.96125 14.7344 6.10766C14.6738 6.25407 14.5711 6.37922 14.4393 6.46727C14.3076 6.55532 14.1527 6.60232 13.9942 6.60232C13.8358 6.60232 13.6809 6.55532 13.5491 6.46727C13.4174 6.37922 13.3147 6.25407 13.2541 6.10766C13.1935 5.96125 13.1777 5.80015 13.2087 5.64475C13.2396 5.48934 13.316 5.34662 13.4281 5.23462Z" fill="#444444"/>
<path d="M19.6658 8.92602C18.9856 8.24536 17.7993 8.24536 17.1191 8.92602C16.8673 9.17788 16.6958 9.49875 16.6264 9.84806C16.5569 10.1974 16.5926 10.5594 16.7289 10.8885C16.8652 11.2175 17.096 11.4987 17.3921 11.6966C17.6883 11.8944 18.0364 12.0001 18.3926 12.0001C18.7487 12.0001 19.0969 11.8944 19.393 11.6966C19.6891 11.4987 19.92 11.2175 20.0563 10.8885C20.1926 10.5594 20.2282 10.1974 20.1588 9.84806C20.0893 9.49875 19.9178 9.17788 19.666 8.92602H19.6658ZM18.9587 10.7654C18.8062 10.9111 18.6034 10.9924 18.3925 10.9924C18.1815 10.9924 17.9787 10.9111 17.8262 10.7654C17.7142 10.6534 17.6379 10.5107 17.6069 10.3553C17.576 10.2 17.5919 10.0389 17.6525 9.89256C17.7131 9.74621 17.8158 9.62112 17.9475 9.53311C18.0792 9.4451 18.234 9.39812 18.3925 9.39812C18.5509 9.39812 18.7057 9.4451 18.8374 9.53311C18.9691 9.62112 19.0718 9.74621 19.1324 9.89256C19.193 10.0389 19.2089 10.2 19.178 10.3553C19.147 10.5107 19.0708 10.6534 18.9587 10.7654Z" fill="#444444"/>
<path d="M12.6899 11.5036C12.7364 11.55 12.7915 11.5869 12.8521 11.612C12.9128 11.6372 12.9778 11.6501 13.0435 11.6501C13.1091 11.6501 13.1741 11.6372 13.2348 11.612C13.2954 11.5869 13.3506 11.55 13.397 11.5036L19.697 5.20332C19.7908 5.10956 19.8434 4.98239 19.8434 4.8498C19.8434 4.71721 19.7908 4.59004 19.697 4.49628C19.6033 4.40253 19.4761 4.34985 19.3435 4.34985C19.2109 4.34985 19.0837 4.40253 18.99 4.49628L12.6899 10.7966C12.6435 10.843 12.6067 10.8981 12.5815 10.9588C12.5564 11.0194 12.5435 11.0844 12.5435 11.1501C12.5435 11.2158 12.5564 11.2808 12.5815 11.3414C12.6067 11.4021 12.6435 11.4572 12.6899 11.5036Z" fill="#444444"/>
<path d="M6.72656 3.37622C6.6609 3.3762 6.59587 3.38912 6.5352 3.41425C6.47453 3.43937 6.4194 3.4762 6.37297 3.52263C6.32654 3.56906 6.28971 3.62419 6.26459 3.68486C6.23947 3.74553 6.22655 3.81055 6.22656 3.87622V5.02905C6.22656 5.16166 6.27924 5.28884 6.37301 5.38261C6.46678 5.47637 6.59395 5.52905 6.72656 5.52905C6.85917 5.52905 6.98635 5.47637 7.08012 5.38261C7.17388 5.28884 7.22656 5.16166 7.22656 5.02905V3.87622C7.22658 3.81055 7.21366 3.74553 7.18854 3.68486C7.16342 3.62419 7.12659 3.56906 7.08015 3.52263C7.03372 3.4762 6.9786 3.43937 6.91792 3.41425C6.85725 3.38912 6.79223 3.3762 6.72656 3.37622Z" fill="#444444"/>
<path d="M6.72656 6.92358C6.6609 6.92357 6.59587 6.93649 6.5352 6.96161C6.47453 6.98673 6.4194 7.02356 6.37297 7.06999C6.32654 7.11642 6.28971 7.17155 6.26459 7.23222C6.23947 7.29289 6.22655 7.35792 6.22656 7.42358V8.57642C6.22656 8.70903 6.27924 8.83621 6.37301 8.92998C6.46678 9.02374 6.59395 9.07642 6.72656 9.07642C6.85917 9.07642 6.98635 9.02374 7.08012 8.92998C7.17388 8.83621 7.22656 8.70903 7.22656 8.57642V7.42358C7.22658 7.35792 7.21366 7.29289 7.18854 7.23222C7.16342 7.17155 7.12659 7.11642 7.08015 7.06999C7.03372 7.02356 6.9786 6.98673 6.91792 6.96161C6.85725 6.93649 6.79223 6.92357 6.72656 6.92358Z" fill="#444444"/>
<path d="M6.72656 10.4709C6.6609 10.4709 6.59587 10.4839 6.5352 10.509C6.47453 10.5341 6.4194 10.5709 6.37297 10.6174C6.32654 10.6638 6.28971 10.7189 6.26459 10.7796C6.23947 10.8403 6.22655 10.9053 6.22656 10.9709V12.1243C6.22656 12.2569 6.27924 12.3841 6.37301 12.4778C6.46678 12.5716 6.59395 12.6243 6.72656 12.6243C6.85917 12.6243 6.98635 12.5716 7.08012 12.4778C7.17388 12.3841 7.22656 12.2569 7.22656 12.1243V10.9709C7.22658 10.9053 7.21366 10.8403 7.18854 10.7796C7.16342 10.7189 7.12659 10.6638 7.08015 10.6174C7.03372 10.5709 6.9786 10.5341 6.91792 10.509C6.85725 10.4839 6.79223 10.4709 6.72656 10.4709Z" fill="#444444"/>
</svg>
